<?xml version="1.0" standalone="no"?>
<!DOCTYPE svg PUBLIC "-//W3C//DTD SVG 20010904//EN"
 "http://www.w3.org/TR/2001/REC-SVG-20010904/DTD/svg10.dtd">
<svg version="1.0" xmlns="http://www.w3.org/2000/svg"
 width="512.000000pt" height="512.000000pt" viewBox="0 0 512.000000 512.000000"
 preserveAspectRatio="xMidYMid meet">
<metadata>
Created by potrace 1.14, written by Peter Selinger 2001-2017
</metadata>
<g transform="translate(0.000000,512.000000) scale(0.100000,-0.100000)"
fill="#000000" stroke="none">
<path d="M1558 4621 c-821 -274 -1503 -503 -1515 -509 -41 -22 -44 -65 -41
-591 l3 -499 1000 -1498 c843 -1264 1005 -1500 1031 -1511 30 -11 125 19 1533
488 1058 353 1508 507 1522 522 27 29 25 88 -3 114 -37 34 -61 35 -142 9 l-76
-24 2 401 3 400 100 34 c59 19 107 42 118 54 45 55 88 -14 -986 1594 -842
1260 -1006 1501 -1029 1506 -22 6 -367 -106 -1520 -490z m2392 -1101 c513
-770 931 -1402 928 -1405 -6 -6 -2758 -925 -2770 -925 -9 0 -1868 2785 -1868
2797 0 6 2742 928 2771 932 3 1 426 -629 939 -1399z m-2863 -1130 l893 -1340
0 -325 c0 -179 -3 -325 -7 -324 -5 0 -410 604 -900 1342 l-893 1342 0 323 c0
177 3 322 8 322 4 0 409 -603 899 -1340z m3603 -929 l0 -399 -1252 -418 c-689
-229 -1259 -419 -1265 -422 -10 -3 -13 80 -13 396 l0 400 143 48 c78 26 148
49 155 52 9 3 12 -42 12 -206 0 -142 4 -220 12 -237 13 -28 55 -55 85 -55 10
0 104 57 208 125 l190 125 185 0 c130 1 190 4 201 13 36 27 39 52 39 300 l0
245 583 192 c320 105 596 198 612 205 33 14 86 33 98 34 4 1 7 -179 7 -398z
m-1480 -261 l0 -160 -155 0 -156 0 -87 -58 c-48 -32 -104 -68 -125 -81 l-38
-23 3 153 3 152 260 87 c143 48 268 88 278 88 16 2 17 -12 17 -158z"/>
<path d="M2006 3854 c-45 -46 -37 -76 59 -213 71 -103 82 -123 67 -128 -9 -4
-96 -37 -192 -73 -155 -58 -176 -69 -193 -98 -16 -27 -17 -37 -7 -67 14 -42
59 -70 99 -60 14 3 111 38 215 77 127 47 194 68 203 62 8 -5 148 -200 312
-434 201 -287 306 -429 325 -438 56 -28 121 13 121 75 0 35 -30 82 -292 456
-161 229 -289 419 -285 421 4 2 91 36 193 74 226 85 244 94 256 129 20 57 -23
123 -80 123 -8 0 -117 -38 -242 -86 -125 -47 -233 -83 -240 -80 -7 2 -52 61
-101 131 -48 69 -97 133 -108 141 -33 23 -80 17 -110 -12z"/>
</g>
</svg>
